<?xml version="1.0" encoding="UTF-8" standalone="no"?>
<!-- Created with Inkscape (http://www.inkscape.org/) -->

<svg
   xmlns:dc="http://purl.org/dc/elements/1.1/"
   xmlns:cc="http://creativecommons.org/ns#"
   xmlns:rdf="http://www.w3.org/1999/02/22-rdf-syntax-ns#"
   xmlns:svg="http://www.w3.org/2000/svg"
   xmlns="http://www.w3.org/2000/svg"
   xmlns:sodipodi="http://sodipodi.sourceforge.net/DTD/sodipodi-0.dtd"
   xmlns:inkscape="http://www.inkscape.org/namespaces/inkscape"
   width="400px"
   height="400px"
   viewBox="0 0 400 400"
   version="1.1"
   id="SVGRoot"
   inkscape:version="0.92.4 (unknown)"
   sodipodi:docname="books.svg">
  <defs
     id="defs1526" />
  <sodipodi:namedview
     id="base"
     pagecolor="#ffffff"
     bordercolor="#666666"
     borderopacity="1.0"
     inkscape:pageopacity="0.0"
     inkscape:pageshadow="2"
     inkscape:zoom="1.28"
     inkscape:cx="44.205557"
     inkscape:cy="211.87287"
     inkscape:document-units="px"
     inkscape:current-layer="layer1"
     showgrid="false"
     inkscape:window-width="1920"
     inkscape:window-height="1036"
     inkscape:window-x="0"
     inkscape:window-y="21"
     inkscape:window-maximized="1"
     inkscape:snap-center="true"
     inkscape:snap-object-midpoints="true" />
  <metadata
     id="metadata1529">
    <rdf:RDF>
      <cc:Work
         rdf:about="">
        <dc:format>image/svg+xml</dc:format>
        <dc:type
           rdf:resource="http://purl.org/dc/dcmitype/StillImage" />
        <dc:title></dc:title>
      </cc:Work>
    </rdf:RDF>
  </metadata>
  <g
     inkscape:label="Layer 1"
     inkscape:groupmode="layer"
     id="layer1">
    <rect
       style="opacity:1;fill:#f5bb3d;fill-opacity:0.99215686;stroke:#121651;stroke-width:0;stroke-linecap:round;stroke-linejoin:round;stroke-miterlimit:4;stroke-dasharray:none;stroke-opacity:0.65413537"
       id="rect1371"
       width="400"
       height="400"
       x="5e-07"
       y="-5e-07" />
    <text
       xml:space="preserve"
       style="font-style:normal;font-variant:normal;font-weight:900;font-stretch:normal;font-size:52.78668594px;line-height:1.25;font-family:'Roboto Black';-inkscape-font-specification:'Roboto Black, Heavy';font-variant-ligatures:normal;font-variant-caps:normal;font-variant-numeric:normal;font-feature-settings:normal;text-align:start;letter-spacing:0px;word-spacing:0px;writing-mode:lr-tb;text-anchor:start;fill:#ffffff;fill-opacity:1;stroke:none;stroke-width:0.79180032"
       x="220.4548"
       y="293.89612"
       id="text1375"><tspan
         sodipodi:role="line"
         id="tspan1373"
         x="220.4548"
         y="293.89612"
         style="fill:#ffffff;stroke-width:0.79180032">Learn</tspan></text>
    <text
       xml:space="preserve"
       style="font-style:normal;font-variant:normal;font-weight:900;font-stretch:normal;font-size:52.78668594px;line-height:1.25;font-family:'Roboto Black';-inkscape-font-specification:'Roboto Black, Heavy';font-variant-ligatures:normal;font-variant-caps:normal;font-variant-numeric:normal;font-feature-settings:normal;text-align:start;letter-spacing:0px;word-spacing:0px;writing-mode:lr-tb;text-anchor:start;fill:#ffffff;fill-opacity:1;stroke:none;stroke-width:0.79180032"
       x="149.36105"
       y="349.11365"
       id="text1379"><tspan
         sodipodi:role="line"
         id="tspan1377"
         x="149.36105"
         y="349.11365"
         style="fill:#ffffff;stroke-width:0.79180032">for FREE</tspan></text>
    <path
       style="opacity:1;fill:#589dfe;fill-opacity:0.99215686;stroke:#feffff;stroke-width:0;stroke-linecap:round;stroke-linejoin:round;stroke-miterlimit:4;stroke-dasharray:none;stroke-opacity:1"
       d="m 109.94008,146.09373 c -18.896964,0 -34.110045,16.60683 -34.110045,37.23506 0,20.62821 15.213081,37.23504 34.110045,37.23504 h 204.66029 c 5.26202,0 10.02575,-1.28968 12.0601,-3.59447 1.01718,-1.1524 1.8577,-7.96638 1.61094,-9.59263 -0.006,-0.038 -0.0151,-0.0597 -0.022,-0.0923 0.002,-0.002 0.002,-0.002 0.003,-0.003 -8.7e-4,-3e-5 -0.003,2e-5 -0.003,0 -0.007,-0.0309 -0.0127,-0.0624 -0.0202,-0.0884 -0.15402,-0.0147 -0.30794,-0.0297 -0.461,-0.0479 -0.0247,0.0345 -0.0449,0.0693 -0.0675,0.10872 -2.31009,-0.11492 -4.03954,-0.63627 -5.31409,-1.51336 -8.28497,-3.42169 -14.14726,-12.13986 -14.14726,-22.41107 0,-10.2712 5.86229,-18.98939 14.14723,-22.41108 1.27176,-0.87518 2.99642,-1.39689 5.29888,-1.51336 0.02,0.0374 0.0355,0.0785 0.0574,0.11245 0.16537,-0.0199 0.33165,-0.0358 0.49814,-0.0516 0.0107,-0.0436 0.022,-0.0793 0.0303,-0.13457 0.24676,-1.62625 -0.59377,-8.49 -1.61094,-9.6424 -2.03434,-2.30479 -6.79808,-3.59447 -12.0601,-3.59447 z"
       id="rect2200"
       inkscape:connector-curvature="0" />
    <path
       style="opacity:1;fill:#ffffff;fill-opacity:0.99248125;stroke:#feffff;stroke-width:0;stroke-linecap:round;stroke-linejoin:round;stroke-miterlimit:4;stroke-dasharray:none;stroke-opacity:1"
       d="m 226.84806,159.36563 c -12.16142,0 -21.95201,10.68757 -21.95201,23.96316 0,13.27557 9.79059,23.96314 21.95201,23.96314 h 103.34331 c -12.16142,0 -21.95201,-10.68757 -21.95201,-23.96314 0,-13.27559 9.79059,-23.96316 21.95201,-23.96316 z"
       id="rect2202"
       inkscape:connector-curvature="0" />
    <path
       style="opacity:1;fill:#ffd421;fill-opacity:0.99607843;stroke:#feffff;stroke-width:0;stroke-linecap:round;stroke-linejoin:round;stroke-miterlimit:4;stroke-dasharray:none;stroke-opacity:1"
       d="m 102.74785,156.41632 c -8.281875,2.97573 -14.382854,13.70436 -14.382854,26.56034 0,12.85596 6.100979,23.58461 14.382854,26.56033 0,0 13.75453,0.31764 0,-11.10104 -3.764696,-3.02143 -6.303675,-8.79569 -6.303675,-15.45929 0,-6.66363 2.538979,-12.43576 6.303675,-15.4572 12.84819,-10.66626 0,-11.10314 0,-11.10314 z"
       id="rect2233"
       inkscape:connector-curvature="0"
       sodipodi:nodetypes="csccscc" />
    <path
       sodipodi:nodetypes="csccscc"
       inkscape:connector-curvature="0"
       id="path2244"
       d="m 126.77301,156.41632 c -8.28189,2.97573 -14.38287,13.70436 -14.38287,26.56034 0,12.85596 6.10098,23.58461 14.38287,26.56033 0,0 13.75452,0.31764 0,-11.10104 -3.7647,-3.02143 -6.30369,-8.79569 -6.30369,-15.45929 0,-6.66363 2.53898,-12.43576 6.30369,-15.4572 12.84818,-10.66626 0,-11.10314 0,-11.10314 z"
       style="opacity:1;fill:#ffd421;fill-opacity:0.99607843;stroke:#feffff;stroke-width:0;stroke-linecap:round;stroke-linejoin:round;stroke-miterlimit:4;stroke-dasharray:none;stroke-opacity:1" />
    <path
       style="opacity:1;fill:#ffd421;fill-opacity:0.99607843;stroke:#feffff;stroke-width:0;stroke-linecap:round;stroke-linejoin:round;stroke-miterlimit:4;stroke-dasharray:none;stroke-opacity:1"
       d="m 191.25073,156.41632 c -8.28187,2.97573 -14.38285,13.70436 -14.38285,26.56034 0,12.85596 6.10098,23.58461 14.38285,26.56033 0,0 13.75452,0.31764 0,-11.10104 -3.76469,-3.02143 -6.30368,-8.79569 -6.30368,-15.45929 0,-6.66363 2.53898,-12.43576 6.30368,-15.4572 12.84819,-10.66626 0,-11.10314 0,-11.10314 z"
       inkscape:connector-curvature="0"
       sodipodi:nodetypes="csccscc"
       id="path2260" />
    <path
       inkscape:connector-curvature="0"
       id="path2294"
       d="m 279.22685,75.2144 c 14.84453,0 26.79518,15.809828 26.79518,35.44804 0,19.63821 -11.95065,35.44803 -26.79518,35.44803 H 118.45582 c -4.13359,0 -7.87574,-1.22778 -9.47382,-3.42196 -0.79904,-1.0971 -1.45932,-7.58405 -1.26547,-9.13226 0.005,-0.0362 0.0118,-0.0569 0.0172,-0.0878 -10e-4,-0.002 -10e-4,-0.002 -0.003,-0.004 6.8e-4,-2e-5 0.002,2e-5 0.003,0 0.005,-0.0294 0.01,-0.0594 0.0159,-0.0842 0.12099,-0.0141 0.2419,-0.0283 0.36214,-0.0456 0.0194,0.0329 0.0352,0.066 0.053,0.10354 1.81468,-0.10941 3.17326,-0.60574 4.17447,-1.44074 6.50827,-3.25748 11.1134,-11.55725 11.1134,-21.3355 0,-9.77826 -4.60513,-18.078029 -11.11337,-21.335503 -0.99903,-0.833183 -2.35383,-1.329857 -4.16254,-1.440739 -0.0157,0.03567 -0.0279,0.07466 -0.0451,0.107046 -0.12991,-0.01896 -0.26053,-0.03405 -0.39131,-0.04915 -0.008,-0.04151 -0.0173,-0.07547 -0.0238,-0.128106 -0.19385,-1.548206 0.46643,-8.082545 1.26547,-9.179631 1.59808,-2.194181 5.34023,-3.421969 9.47382,-3.421969 z"
       style="opacity:1;fill:#de6724;fill-opacity:0.99215686;stroke:#feffff;stroke-width:0;stroke-linecap:round;stroke-linejoin:round;stroke-miterlimit:4;stroke-dasharray:none;stroke-opacity:1" />
    <path
       style="opacity:1;fill:#ffffff;fill-opacity:0.99248125;stroke:#feffff;stroke-width:0;stroke-linecap:round;stroke-linejoin:round;stroke-miterlimit:4;stroke-dasharray:none;stroke-opacity:1"
       d="m 106.208,87.849594 c 9.55341,0 17.24442,10.174631 17.24442,22.813086 0,12.63846 -7.69101,22.81309 -17.24442,22.81309 h 24.76299 56.41843 24.76299 c 9.55341,0 17.24442,-10.17463 17.24442,-22.81309 -1e-5,-12.638455 -7.69101,-22.813086 -17.24442,-22.813086 h -24.76299 -56.41843 z"
       id="path2296"
       inkscape:connector-curvature="0" />
    <path
       sodipodi:nodetypes="csccscc"
       inkscape:connector-curvature="0"
       id="path2298"
       d="m 284.87671,85.041577 c 6.50584,2.832914 11.29846,13.046656 11.29846,25.285633 0,12.23896 -4.79262,22.45272 -11.29846,25.28562 0,0 -10.80487,0.30239 0,-10.56827 2.95736,-2.87641 4.95186,-8.37355 4.95186,-14.71735 0,-6.34381 -1.9945,-11.838936 -4.95186,-14.715354 -10.0929,-10.154352 0,-10.570279 0,-10.570279 z"
       style="opacity:1;fill:#ffd421;fill-opacity:0.99607843;stroke:#feffff;stroke-width:0;stroke-linecap:round;stroke-linejoin:round;stroke-miterlimit:4;stroke-dasharray:none;stroke-opacity:1" />
    <path
       id="path2302"
       sodipodi:nodetypes="csccscc"
       inkscape:connector-curvature="0"
       d="m 237.11418,85.041577 c 6.50584,2.832914 11.29847,13.046656 11.29847,25.285633 0,12.23896 -4.79263,22.45272 -11.29847,25.28562 0,0 -10.80487,0.30239 0,-10.56827 2.95737,-2.87641 4.95187,-8.37355 4.95187,-14.71735 0,-6.34381 -1.9945,-11.838936 -4.95187,-14.715354 -10.09289,-10.154352 0,-10.570279 0,-10.570279 z"
       style="opacity:1;fill:#ffd421;fill-opacity:0.99607843;stroke:#feffff;stroke-width:0;stroke-linecap:round;stroke-linejoin:round;stroke-miterlimit:4;stroke-dasharray:none;stroke-opacity:1" />
    <path
       style="opacity:1;fill:#82ad4e;fill-opacity:0.99215686;stroke:#feffff;stroke-width:0;stroke-linecap:round;stroke-linejoin:round;stroke-miterlimit:4;stroke-dasharray:none;stroke-opacity:1"
       d="m 148.91655,21.339255 c -11.35614,0 -20.49845,12.094599 -20.49845,27.117928 0,15.02333 9.14231,27.117921 20.49845,27.117921 h 122.99064 c 3.16222,0 6.02499,-0.939257 7.24753,-2.617817 0.61127,-0.839283 1.11638,-5.801834 0.96809,-6.986219 -0.003,-0.0277 -0.009,-0.04351 -0.0132,-0.06715 6.9e-4,-0.0014 6.9e-4,-0.0014 0.002,-0.0027 -5.1e-4,-1.4e-5 -10e-4,2e-5 -0.002,0 -0.004,-0.02248 -0.008,-0.04543 -0.0122,-0.0644 -0.0925,-0.01079 -0.18505,-0.02165 -0.27703,-0.03492 -0.0148,0.02516 -0.0269,0.05052 -0.0405,0.07921 -1.38825,-0.0837 -2.42756,-0.463395 -3.1935,-1.102173 -4.97886,-2.491984 -8.5018,-8.841351 -8.5018,-16.321765 0,-7.480415 3.52294,-13.829782 8.50178,-16.321766 0.76426,-0.63739 1.80069,-1.017347 3.18436,-1.102173 0.012,0.02729 0.0214,0.05712 0.0345,0.08189 0.0994,-0.0145 0.1993,-0.02605 0.29936,-0.0376 0.006,-0.03176 0.0132,-0.05774 0.0182,-0.098 0.14829,-1.184385 -0.35682,-6.183187 -0.9681,-7.022463 -1.22253,-1.67856 -4.0853,-2.617824 -7.24752,-2.617824 z"
       id="path2308"
       inkscape:connector-curvature="0" />
    <path
       inkscape:connector-curvature="0"
       id="path2310"
       d="m 281.27684,31.005243 c -7.30841,0 -13.19207,7.783644 -13.19207,17.452126 0,9.668482 5.88366,17.452126 13.19207,17.452126 h -18.94381 -43.16038 -18.94381 c -7.30841,7e-6 -13.19207,-7.783644 -13.19207,-17.452126 0,-9.668482 5.88366,-17.452126 13.19207,-17.452126 h 18.94381 43.16038 z"
       style="opacity:1;fill:#ffffff;fill-opacity:0.99248125;stroke:#feffff;stroke-width:0;stroke-linecap:round;stroke-linejoin:round;stroke-miterlimit:4;stroke-dasharray:none;stroke-opacity:1" />
    <path
       style="opacity:1;fill:#ffd421;fill-opacity:0.99607843;stroke:#feffff;stroke-width:0;stroke-linecap:round;stroke-linejoin:round;stroke-miterlimit:4;stroke-dasharray:none;stroke-opacity:1"
       d="m 144.59438,28.857096 c -4.977,2.167193 -8.64339,9.980757 -8.64339,19.343639 0,9.362868 3.66639,17.176439 8.64339,19.343625 0,0 8.26578,0.231333 0,-8.084777 -2.2624,-2.200474 -3.7882,-6.405812 -3.7882,-11.258848 0,-4.853051 1.5258,-9.056848 3.7882,-11.257323 7.72112,-7.76813 0,-8.086316 0,-8.086316 z"
       id="path2312"
       inkscape:connector-curvature="0"
       sodipodi:nodetypes="csccscc" />
    <path
       style="opacity:1;fill:#ffd421;fill-opacity:0.99607843;stroke:#feffff;stroke-width:0;stroke-linecap:round;stroke-linejoin:round;stroke-miterlimit:4;stroke-dasharray:none;stroke-opacity:1"
       d="m 181.13295,28.857096 c -4.977,2.167193 -8.64338,9.980757 -8.64338,19.343639 0,9.362868 3.66638,17.176439 8.64338,19.343625 0,0 8.26578,0.231333 0,-8.084777 -2.2624,-2.200474 -3.7882,-6.405812 -3.7882,-11.258848 0,-4.853051 1.5258,-9.056848 3.7882,-11.257323 7.72112,-7.76813 0,-8.086316 0,-8.086316 z"
       inkscape:connector-curvature="0"
       sodipodi:nodetypes="csccscc"
       id="path2314" />
  </g>
</svg>
