<?xml version="1.0" encoding="UTF-8" standalone="no"?>
<!-- Created with Inkscape (http://www.inkscape.org/) -->

<svg
   xmlns:dc="http://purl.org/dc/elements/1.1/"
   xmlns:cc="http://creativecommons.org/ns#"
   xmlns:rdf="http://www.w3.org/1999/02/22-rdf-syntax-ns#"
   xmlns:svg="http://www.w3.org/2000/svg"
   xmlns="http://www.w3.org/2000/svg"
   xmlns:sodipodi="http://sodipodi.sourceforge.net/DTD/sodipodi-0.dtd"
   xmlns:inkscape="http://www.inkscape.org/namespaces/inkscape"
   width="800px"
   height="400px"
   viewBox="0 0 800 400"
   version="1.1"
   id="SVGRoot"
   inkscape:version="0.92.4 (unknown)"
   sodipodi:docname="bgi.svg">
  <defs
     id="defs5141" />
  <sodipodi:namedview
     id="base"
     pagecolor="#ffffff"
     bordercolor="#666666"
     borderopacity="1.0"
     inkscape:pageopacity="0.0"
     inkscape:pageshadow="2"
     inkscape:zoom="1.28"
     inkscape:cx="384.84214"
     inkscape:cy="202.14667"
     inkscape:document-units="px"
     inkscape:current-layer="layer1"
     showgrid="false"
     inkscape:window-width="1920"
     inkscape:window-height="1036"
     inkscape:window-x="0"
     inkscape:window-y="21"
     inkscape:window-maximized="1" />
  <metadata
     id="metadata5144">
    <rdf:RDF>
      <cc:Work
         rdf:about="">
        <dc:format>image/svg+xml</dc:format>
        <dc:type
           rdf:resource="http://purl.org/dc/dcmitype/StillImage" />
        <dc:title></dc:title>
      </cc:Work>
    </rdf:RDF>
  </metadata>
  <g
     inkscape:label="Layer 1"
     inkscape:groupmode="layer"
     id="layer1">
    <rect
       style="opacity:1;fill:#00ffff;fill-opacity:0.76371304;stroke:#feffff;stroke-width:0;stroke-linecap:round;stroke-linejoin:round;stroke-miterlimit:4;stroke-dasharray:none;stroke-opacity:1"
       id="rect5724"
       width="800"
       height="400"
       x="0.1000005"
       y="-5e-07" />
    <path
       style="opacity:1;fill:#e9c6af;fill-opacity:0.76371304;stroke:#feffff;stroke-width:0;stroke-linecap:round;stroke-linejoin:round;stroke-miterlimit:4;stroke-dasharray:none;stroke-opacity:1"
       d="m 745.0625,-1.3710938 c -234.1158,0 -494.47643,90.1319238 -583.76953,202.0898438 -89.293047,111.95788 27.29633,202.08984 261.41211,202.08984 H 522.875 c -234.11578,-3e-5 -350.70712,-90.13196 -261.41406,-202.08984 83.58952,-104.806677 317.09168,-190.482095 538.63867,-201 V -1.3710938 Z M 800.09961,6.5 C 604.21691,30.742499 413.90173,108.28909 340.18359,200.71875 250.89055,312.67663 367.4799,402.80859 601.5957,402.80859 h 25.375 c 16.3129,0 32.75506,-0.45318 49.25586,-1.30664 -120.0032,-6.72628 -202.34975,-39.45337 -232.11133,-86.73633 2.39263,3.50834 5.08044,6.93269 8.05665,10.26954 0.0239,0.0268 0.0484,0.0534 0.0723,0.0801 0.56132,0.62811 1.13309,1.25319 1.71484,1.875 0.0687,0.0734 0.13999,0.14545 0.20899,0.21875 0.54767,0.58226 1.10245,1.16357 1.66797,1.74024 0.0804,0.0819 0.16344,0.16234 0.24414,0.24414 0.54223,0.54968 1.09,1.09804 1.64844,1.64258 0.13677,0.13336 0.27632,0.26536 0.41406,0.39844 0.5277,0.50974 1.06161,1.01633 1.60351,1.52148 0.12784,0.11917 0.25614,0.2385 0.38477,0.35742 0.54495,0.5038 1.09716,1.00473 1.65625,1.50391 0.15423,0.13771 0.30757,0.2767 0.46289,0.41406 0.58277,0.5154 1.17363,1.02867 1.77148,1.53906 0.0987,0.0843 0.19768,0.16775 0.29688,0.25196 0.63905,0.54241 1.28729,1.08244 1.94336,1.61914 0.095,0.0777 0.18984,0.15482 0.28516,0.23242 0.64474,0.52464 1.29801,1.04731 1.95898,1.5664 0.11534,0.0906 0.22986,0.18109 0.3457,0.27149 0.69296,0.54088 1.3949,1.07851 2.10547,1.61328 0.0726,0.0546 0.1441,0.10946 0.2168,0.16406 0.7858,0.58921 1.58154,1.17417 2.38867,1.75586 1.85377,1.33602 3.77091,2.65154 5.73633,3.94727 1.29799,0.85567 2.62056,1.70128 3.96679,2.53906 0.21966,0.13668 0.43338,0.27591 0.6543,0.41211 1.43601,0.88534 2.90663,1.75818 4.39649,2.62305 0.34913,0.20267 0.6948,0.40588 1.04687,0.60742 1.43658,0.82233 2.9033,1.63228 4.38867,2.43555 0.4028,0.21784 0.80262,0.43787 1.20899,0.65429 1.48322,0.7899 2.99284,1.56896 4.52344,2.33985 0.44533,0.22434 0.89246,0.44724 1.34179,0.66992 1.5281,0.75729 3.0783,1.50578 4.65235,2.24414 0.46601,0.2186 0.93623,0.43541 1.40625,0.65234 1.54487,0.71298 3.10926,1.41853 4.69726,2.11328 1.7374,0.76014 3.51218,1.50417 5.30078,2.24219 0.4473,0.18454 0.88163,0.37349 1.33203,0.55664 4.5295,1.84166 9.21791,3.61454 14.06641,5.3125 0.1751,0.0614 0.3576,0.11849 0.5332,0.17969 2.2186,0.77274 4.4659,1.53141 6.75,2.27344 0.6204,0.20156 1.25947,0.39447 1.88477,0.59375 1.8697,0.5959 3.74765,1.18839 5.66016,1.76367 0.75288,0.22647 1.5237,0.44277 2.2832,0.66601 1.8224,0.53569 3.65162,1.06896 5.51172,1.58594 0.8436,0.23445 1.70338,0.46084 2.55468,0.69141 1.7803,0.4822 3.56696,0.96067 5.38086,1.42578 0.9553,0.24493 1.92418,0.48248 2.88868,0.72266 1.763,0.43896 3.53442,0.87399 5.32812,1.29687 1.0268,0.24205 2.06476,0.4781 3.10156,0.71484 1.7547,0.40067 3.51944,0.79435 5.30274,1.17969 1.0811,0.23359 2.17012,0.46349 3.26172,0.69141 1.7937,0.37455 3.60007,0.74244 5.42187,1.10156 1.089,0.21464 2.18235,0.42572 3.28125,0.63477 1.8802,0.35776 3.77625,0.70745 5.68555,1.04882 1.0935,0.1955 2.18811,0.39 3.29101,0.58008 1.912,0.32951 3.84291,0.64781 5.78321,0.96094 1.1201,0.18074 2.23778,0.36186 3.36718,0.53711 2.016,0.31281 4.05391,0.61303 6.09961,0.9082 1.0965,0.1582 2.18797,0.31956 3.29297,0.47266 2.0459,0.28346 4.11651,0.55056 6.19141,0.8164 1.1418,0.14629 2.27528,0.29854 3.42578,0.43946 2.2657,0.2775 4.55996,0.53646 6.85938,0.79297 0.9356,0.10437 1.85958,0.2175 2.80078,0.31836 2.8356,0.30395 5.70229,0.58746 8.58789,0.85937 0.4362,0.0411 0.86358,0.0885 1.30078,0.12891 3.3989,0.31371 6.82782,0.6061 10.29492,0.875 3.5211,0.27309 7.07727,0.52375 10.66797,0.75 5.2254,0.93447 10.56931,1.801 16.00781,2.61132 17.5816,-1.06538 35.21663,-2.60889 52.82813,-4.57617 -94.6659,-18.86328 -151.2731,-58.72974 -156.75,-109.58007 14.5712,52.08665 85.70232,90.84679 197.73632,104.22265 7.08484,-1.06292 14.15227,-2.20163 21.20313,-3.39648 v -1.34375 C 711.969,350.45622 684.8709,287.81483 741.95902,216.23636 c 14.91243,-18.69759 34.60443,-36.78399 58.14063,-53.94531 V 53.251953 C 703.08708,83.40744 618.62199,125.34622 564.22656,173.01172 c -1.545,1.3539 -3.06835,2.71122 -4.56445,4.07422 -4.309,3.9255 -8.41254,7.88635 -12.30273,11.88281 -0.20052,0.20586 -0.40607,0.41115 -0.60547,0.61719 -3.9863,4.12217 -7.75569,8.27875 -11.27539,12.46875 0.01,-0.0103 0.0135,-0.0215 0.0215,-0.0312 1.0345,-1.36828 2.0908,-2.73826 3.1875,-4.11328 1.1483,-1.43978 2.33261,-2.87619 3.53711,-4.3086 0.1593,-0.18946 0.31626,-0.37903 0.47656,-0.56836 1.163,-1.37377 2.35446,-2.74269 3.56836,-4.10937 0.2054,-0.23127 0.41029,-0.4623 0.61719,-0.69336 1.192,-1.3315 2.40884,-2.65989 3.64844,-3.98438 0.2346,-0.25059 0.47073,-0.50161 0.70703,-0.75195 0.7842,-0.83111 1.59183,-1.65808 2.39453,-2.48633 0.9326,-0.96224 1.87278,-1.92257 2.83008,-2.88086 0.6749,-0.67558 1.35782,-1.34985 2.04492,-2.02343 0.9596,-0.94076 1.93291,-1.87961 2.91601,-2.81641 0.7375,-0.70274 1.47792,-1.40501 2.22852,-2.10547 0.9949,-0.92843 2.00574,-1.853 3.02344,-2.77734 0.7332,-0.66595 1.46398,-1.33231 2.20898,-1.9961 1.1142,-0.99287 2.25043,-1.98275 3.39063,-2.9707 0.6914,-0.59904 1.37332,-1.19968 2.07422,-1.79688 1.2895,-1.09886 2.60848,-2.19264 3.92968,-3.28515 0.5895,-0.48741 1.16602,-0.97678 1.76172,-1.46289 1.9105,-1.55909 3.85032,-3.11265 5.82422,-4.6582 0.376,-0.29437 0.76623,-0.58505 1.14453,-0.87891 1.618,-1.25715 3.24715,-2.51192 4.90625,-3.75977 0.7527,-0.56606 1.52406,-1.12729 2.28516,-1.6914 1.298,-0.96219 2.59782,-1.92444 3.91992,-2.88086 0.9467,-0.68482 1.91024,-1.36507 2.86914,-2.04688 1.135,-0.80707 2.27203,-1.61322 3.42383,-2.41601 1.0555,-0.73554 2.12191,-1.46929 3.19141,-2.20117 1.13139,-0.77433 2.26901,-1.54621 3.41601,-2.31641 1.1132,-0.74746 2.23363,-1.49283 3.36133,-2.23633 1.0847,-0.71527 2.17739,-1.42904 3.27539,-2.14062 1.1773,-0.76282 2.35838,-1.52466 3.55078,-2.28321 1.1801,-0.75082 2.37366,-1.49761 3.56836,-2.24414 1.1094,-0.69318 2.21609,-1.38674 3.33789,-2.07617 1.3223,-0.81268 2.66255,-1.62037 4.00195,-2.42773 1.0558,-0.63649 2.10363,-1.27509 3.16993,-1.90821 1.4695,-0.87257 2.96197,-1.73734 4.45117,-2.60351 0.9681,-0.5631 1.92399,-1.13106 2.90039,-1.69141 0.016,-0.009 0.0328,-0.0183 0.0488,-0.0273 2.3653,-1.35734 4.75331,-2.70591 7.16601,-4.04688 1.1023,-0.61256 2.22599,-1.21708 3.33789,-1.82617 1.4381,-0.78783 2.87393,-1.57744 4.32813,-2.35937 1.2696,-0.68266 2.55619,-1.35903 3.83789,-2.03711 1.2652,-0.6695 2.52779,-1.34085 3.80469,-2.00586 1.4088,-0.7337 2.8311,-1.46128 4.2539,-2.189457 1.2174,-0.62309 2.43471,-1.246224 3.66211,-1.865234 1.4241,-0.7181 2.85948,-1.432014 4.29688,-2.144531 1.2299,-0.609753 2.46352,-1.218589 3.70312,-1.824219 1.5266,-0.74577 3.05861,-1.487123 4.59961,-2.226563 1.1075,-0.53149 2.2192,-1.05971 3.33398,-1.58789 1.61123,-0.76327 3.22722,-1.526901 4.85352,-2.283204 1.1724,-0.54528 2.3531,-1.085333 3.5332,-1.626953 1.6109,-0.73917 3.22071,-1.478667 4.84571,-2.210937 1.0012,-0.45116 2.01498,-0.897183 3.02148,-1.345703 1.8755,-0.83575 3.74878,-1.671587 5.64258,-2.498047 0.053,-0.0229 0.1057,-0.04546 0.1582,-0.06836 7.5099,-3.27563 15.16812,-6.473036 22.94922,-9.597656 0.6998,-0.28104 1.3939,-0.565913 2.0957,-0.845703 2.012,-0.80192 4.04142,-1.595219 6.07032,-2.386719 0.943,-0.36794 1.88339,-0.737855 2.83007,-1.103515 2.0924,-0.80818 4.19499,-1.607337 6.30469,-2.404297 0.8297,-0.31347 1.65794,-0.627733 2.49024,-0.939453 2.1252,-0.79582 4.26229,-1.584841 6.40429,-2.369141 0.8743,-0.32019 1.748,-0.640734 2.625,-0.958984 2.1623,-0.7845 4.33117,-1.563318 6.50977,-2.335938 0.8213,-0.2913 1.6471,-0.581491 2.4707,-0.871094 2.2766,-0.80042 4.55591,-1.595522 6.84961,-2.382812 0.6195,-0.21266 1.24454,-0.423076 1.86524,-0.634766 2.4702,-0.84235 4.94634,-1.680892 7.43554,-2.507812 0.2525,-0.0839 0.50512,-0.16627 0.75782,-0.25 3.76677,-1.247998 7.5632,-2.471442 11.37109,-3.683594 z"
       id="path5831"
       inkscape:connector-curvature="0" />
    <path
       style="opacity:1;fill:#ffff00;fill-opacity:0.79746836;stroke:#feffff;stroke-width:0;stroke-linecap:round;stroke-linejoin:round;stroke-miterlimit:4;stroke-dasharray:none;stroke-opacity:1"
       d="M 800.09961,53.251953 C 695.50432,89.722619 608.92658,139.94555 564.57031,195.56055 478.6346,303.30898 583.41185,390.82597 800.09961,397.25586 v -9.99219 C 653.5547,360.54337 593.3782,285.03618 664.74023,195.56055 693.90107,158.99799 741.32254,124.77172 800.09961,95.246094 Z"
       id="path5833"
       inkscape:connector-curvature="0" />
    <path
       style="opacity:1;fill:#a05ac4;fill-opacity:0.72151902;stroke:#feffff;stroke-width:0;stroke-linecap:round;stroke-linejoin:round;stroke-miterlimit:4;stroke-dasharray:none;stroke-opacity:1"
       d="M 800.09961,25.25 C 655.18288,61.174717 528.65653,123.68029 471.71094,195.08008 387.49764,300.66878 486.44994,386.81673 694.36719,396.2793 557.10119,366.36274 502.44599,289.53235 571.71094,198.98633 615.05463,142.32558 698.70847,91.036141 800.09961,53.251953 Z"
       id="path5835"
       inkscape:connector-curvature="0" />
    <path
       style="opacity:1;fill:#008080;fill-opacity:0.71308019;stroke:#feffff;stroke-width:0;stroke-linecap:round;stroke-linejoin:round;stroke-miterlimit:4;stroke-dasharray:none;stroke-opacity:1"
       d="M 800.09961,2.0585938 C 609.46033,28.273094 426.75354,104.23385 354.88086,194.34961 c -89.293,111.95788 27.29636,202.08984 261.41211,202.08984 h 121.61719 c -234.11585,0 -350.70511,-90.13196 -261.41211,-202.08984 C 532.81619,123.73659 657.18709,61.816333 800.09961,25.708984 Z M 797.67773,387.32422 c 0.2021,0.0403 0.39917,0.083 0.60157,0.12305 l 0.0273,-0.0332 c -0.208,-0.0311 -0.42121,-0.0586 -0.62891,-0.0898 z"
       id="path5837"
       inkscape:connector-curvature="0" />
    <path
       style="opacity:1;fill:#ff00ff;fill-opacity:0.73417723;stroke:#feffff;stroke-width:0;stroke-linecap:round;stroke-linejoin:round;stroke-miterlimit:4;stroke-dasharray:none;stroke-opacity:1"
       d="m 800.09961,-0.28125 c -221.54699,10.517905 -455.04915,96.193323 -538.63867,201 -89.29306,111.95787 27.29828,202.08981 261.41406,202.08984 h 78.7207 c -234.1158,0 -350.70515,-90.13197 -261.41211,-202.08984 C 413.90173,108.28909 604.21691,30.742501 800.09961,6.5 V 0 Z m 0,47.267578 c -3.8083,1.212285 -7.60393,2.435457 -11.37109,3.683594 -0.2527,0.0837 -0.50727,0.16612 -0.75977,0.25 -2.4892,0.82692 -4.96535,1.665462 -7.43555,2.507812 -0.6207,0.21169 -1.24378,0.422106 -1.86328,0.634766 -2.2937,0.78729 -4.57496,1.582394 -6.85156,2.382812 -0.8235,0.28959 -1.64745,0.579804 -2.46875,0.871094 -2.1787,0.77263 -4.34747,1.551438 -6.50977,2.335938 -0.8771,0.31825 -1.75265,0.638794 -2.62695,0.958984 -2.142,0.7843 -4.27714,1.573311 -6.40234,2.369141 -0.8323,0.31171 -1.66054,0.625983 -2.49024,0.939453 -2.1097,0.79696 -4.21414,1.596117 -6.30664,2.404297 -0.9466,0.36566 -1.88708,0.735575 -2.83008,1.103515 -2.0289,0.7915 -4.05636,1.584799 -6.06836,2.386719 -0.7019,0.27978 -1.3959,0.564673 -2.0957,0.845703 -7.7811,3.12463 -15.44117,6.322029 -22.95117,9.597656 -0.053,0.0229 -0.1057,0.04546 -0.1582,0.06836 -1.8937,0.82646 -3.76698,1.662297 -5.64258,2.498047 -1.0064,0.44852 -2.01843,0.894543 -3.01953,1.345703 -1.625,0.73227 -3.23491,1.471767 -4.84571,2.210937 -1.1802,0.54161 -2.36275,1.081676 -3.53515,1.626953 -1.6264,0.7563 -3.24034,1.519944 -4.85157,2.283204 -1.11477,0.52819 -2.22843,1.0564 -3.33593,1.58789 -1.541,0.73944 -3.07301,1.480793 -4.59961,2.226563 -1.2395,0.60562 -2.47313,1.214467 -3.70313,1.824219 -1.4374,0.712519 -2.87092,1.426431 -4.29492,2.144531 -1.2274,0.619 -2.44471,1.242144 -3.66211,1.865234 -1.4228,0.728167 -2.84696,1.455757 -4.25586,2.189457 -1.2768,0.66501 -2.53939,1.33636 -3.80468,2.00586 -1.28162,0.67811 -2.5683,1.35444 -3.8379,2.03711 -1.4542,0.78194 -2.88807,1.57154 -4.32617,2.35937 -1.112,0.60909 -2.23569,1.21361 -3.33789,1.82617 -2.4127,1.34097 -4.80257,2.68954 -7.16797,4.04688 -0.016,0.009 -0.0309,0.0183 -0.0469,0.0273 -0.9763,0.56035 -1.93219,1.12831 -2.90039,1.69141 -1.4891,0.86617 -2.98167,1.73094 -4.45117,2.60351 -1.0664,0.63312 -2.11403,1.27175 -3.16993,1.90821 -1.3393,0.80737 -2.67965,1.61504 -4.00195,2.42773 -1.1218,0.68943 -2.22849,1.38299 -3.33789,2.07617 -1.1947,0.74653 -2.38816,1.49332 -3.56836,2.24414 -1.1923,0.75855 -2.37348,1.52036 -3.55078,2.28321 -1.0981,0.71157 -2.19069,1.42535 -3.27539,2.14062 -1.1277,0.74349 -2.24813,1.48888 -3.36133,2.23633 -1.147,0.77021 -2.28454,1.54206 -3.41601,2.31641 -1.0695,0.73187 -2.13591,1.46563 -3.19141,2.20117 -1.1519,0.80278 -2.28883,1.60893 -3.42383,2.41601 -0.9589,0.6818 -1.92254,1.36206 -2.86914,2.04688 -1.3221,0.95642 -2.62192,1.91867 -3.91992,2.88086 -0.761,0.56411 -1.53256,1.12533 -2.28516,1.6914 -1.6592,1.24784 -3.28825,2.50262 -4.90625,3.75977 -0.3782,0.29387 -0.76863,0.58454 -1.14453,0.87891 -1.9739,1.54554 -3.91372,3.09911 -5.82422,4.6582 -0.5957,0.48611 -1.17232,0.97548 -1.76172,1.46289 -1.3213,1.0925 -2.64018,2.18632 -3.92968,3.28515 -0.7009,0.5972 -1.38282,1.19784 -2.07422,1.79688 -1.1402,0.98796 -2.27633,1.97783 -3.39063,2.9707 -0.7449,0.66379 -1.47568,1.33015 -2.20898,1.9961 -1.0176,0.92434 -2.02854,1.84891 -3.02344,2.77734 -0.7506,0.70046 -1.49102,1.40273 -2.22852,2.10547 -0.9831,0.9368 -1.95641,1.87563 -2.91601,2.81641 -0.6871,0.67358 -1.37002,1.34784 -2.04492,2.02343 -0.9572,0.95828 -1.89748,1.91861 -2.83008,2.88086 -0.8028,0.82824 -1.61023,1.65522 -2.39453,2.48633 -0.2362,0.25034 -0.47253,0.50136 -0.70703,0.75195 -1.2396,1.32449 -2.45644,2.65288 -3.64844,3.98438 -0.2069,0.23106 -0.41179,0.46209 -0.61719,0.69336 -1.2139,1.36668 -2.40526,2.7356 -3.56836,4.10937 -0.1603,0.18933 -0.31726,0.3789 -0.47656,0.56836 -1.2045,1.43241 -2.38881,2.86882 -3.53711,4.3086 -1.0967,1.37502 -2.1531,2.74501 -3.1875,4.11328 -0.01,0.0101 -0.0135,0.0209 -0.0215,0.0312 3.5197,-4.19 7.28919,-8.34659 11.27539,-12.46875 0.1994,-0.20604 0.40495,-0.41134 0.60547,-0.61719 3.8902,-3.99647 7.99373,-7.95731 12.30273,-11.88281 1.4961,-1.363 3.01935,-2.72032 4.56445,-4.07422 C 618.62203,125.34641 703.0871,83.407415 800.09961,53.251953 Z M 581.16016,286.85938 c 5.6787,52.72282 66.30695,93.64654 167.34765,111.58593 2.5822,0.15941 5.18223,0.30565 7.79883,0.44141 0.8079,0.0419 1.61653,0.0834 2.42774,0.12305 2.90278,0.14157 5.82207,0.27146 8.76757,0.38281 0.4947,0.0187 0.99434,0.0329 1.49024,0.0508 2.8039,0.10089 5.62675,0.19037 8.46875,0.26367 0.5175,0.0134 1.03208,0.0286 1.55078,0.041 3.1008,0.0743 6.22559,0.12871 9.37109,0.16992 0.6359,0.008 1.27431,0.0145 1.91211,0.0215 3.2471,0.0355 6.51079,0.0605 9.80469,0.0605 v -6.73242 C 675.85278,382.44242 596.63076,342.16068 581.16016,286.85938 Z M 800.09961,400 h -42.36523 c 3.985,0.6373 8.01839,1.24508 12.12109,1.8125 10.0611,-0.45564 20.14634,-1.05374 30.24414,-1.8125 z M 444.11523,314.76562 c 31.24085,49.63309 120.38996,83.25099 250.25196,87.56641 -8.6937,-1.1537 -17.12257,-2.4666 -25.29297,-3.92773 -3.5907,-0.22625 -7.14677,-0.47691 -10.66797,-0.75 -3.467,-0.2689 -6.89612,-0.56129 -10.29492,-0.875 -0.4373,-0.0404 -0.86458,-0.0878 -1.30078,-0.12891 -2.8856,-0.27191 -5.75219,-0.55542 -8.58789,-0.85937 -0.9411,-0.10086 -1.86509,-0.21399 -2.80078,-0.31836 -2.2994,-0.25651 -4.59368,-0.51547 -6.85938,-0.79297 -1.1505,-0.14092 -2.28398,-0.29317 -3.42578,-0.43946 -2.0749,-0.26584 -4.14551,-0.53294 -6.19141,-0.8164 -1.105,-0.1531 -2.19647,-0.31446 -3.29297,-0.47266 -2.0457,-0.29517 -4.08361,-0.59539 -6.09961,-0.9082 -1.1294,-0.17525 -2.24718,-0.35637 -3.36718,-0.53711 -1.9403,-0.31313 -3.87121,-0.63143 -5.78321,-0.96094 -1.1029,-0.19008 -2.19751,-0.38458 -3.29101,-0.58008 -1.9094,-0.34137 -3.80535,-0.69106 -5.68555,-1.04882 -1.099,-0.20906 -2.19235,-0.42013 -3.28125,-0.63477 -1.8218,-0.35912 -3.62807,-0.72701 -5.42187,-1.10156 -1.0915,-0.22792 -2.18062,-0.45782 -3.26172,-0.69141 -1.7833,-0.38534 -3.54814,-0.77902 -5.30274,-1.17969 -1.0369,-0.23674 -2.07476,-0.47279 -3.10156,-0.71484 -1.7937,-0.42288 -3.56522,-0.85792 -5.32812,-1.29687 -0.9645,-0.24017 -1.93348,-0.47773 -2.88868,-0.72266 -1.8139,-0.46511 -3.60056,-0.94358 -5.38086,-1.42578 -0.8513,-0.23057 -1.71118,-0.45696 -2.55468,-0.69141 -1.8602,-0.51698 -3.68932,-1.05025 -5.51172,-1.58594 -0.7594,-0.22324 -1.53032,-0.43954 -2.2832,-0.66601 -1.91242,-0.57528 -3.79046,-1.16777 -5.66016,-1.76367 -0.6253,-0.19928 -1.26427,-0.39219 -1.88477,-0.59375 -2.2841,-0.74203 -4.5314,-1.5007 -6.75,-2.27344 -0.1756,-0.0612 -0.358,-0.11834 -0.5332,-0.17969 -4.8484,-1.69796 -9.53691,-3.47084 -14.06641,-5.3125 -0.4504,-0.18315 -0.88483,-0.3721 -1.33203,-0.55664 -1.7887,-0.73802 -3.56338,-1.48205 -5.30078,-2.24219 -1.588,-0.69475 -3.15239,-1.4003 -4.69726,-2.11328 -0.47002,-0.21693 -0.94024,-0.43374 -1.40625,-0.65234 -1.57405,-0.73836 -3.12425,-1.48685 -4.65235,-2.24414 -0.44933,-0.22268 -0.89648,-0.44559 -1.34179,-0.66992 -1.53058,-0.77089 -3.04022,-1.54995 -4.52344,-2.33985 -0.40637,-0.21642 -0.80619,-0.43648 -1.20899,-0.65429 -1.48537,-0.80327 -2.95209,-1.61322 -4.38867,-2.43555 -0.35207,-0.20154 -0.69774,-0.40475 -1.04687,-0.60742 -1.48986,-0.86487 -2.96048,-1.73771 -4.39649,-2.62305 -0.22092,-0.1362 -0.43464,-0.27543 -0.6543,-0.41211 -1.34624,-0.83778 -2.6688,-1.68339 -3.96679,-2.53906 -1.96542,-1.29573 -3.88256,-2.61125 -5.73633,-3.94727 -0.80713,-0.58169 -1.60287,-1.16665 -2.38867,-1.75586 -0.0727,-0.0546 -0.14424,-0.10945 -0.2168,-0.16406 -0.71057,-0.53477 -1.41251,-1.0724 -2.10547,-1.61328 -0.11584,-0.0904 -0.23036,-0.1809 -0.3457,-0.27149 -0.66097,-0.51909 -1.31427,-1.04176 -1.95898,-1.5664 -0.0953,-0.0776 -0.19019,-0.15473 -0.28516,-0.23242 -0.65607,-0.5367 -1.30431,-1.07673 -1.94336,-1.61914 -0.0992,-0.0842 -0.19815,-0.16767 -0.29688,-0.25196 -0.59785,-0.51039 -1.18871,-1.02366 -1.77148,-1.53906 -0.15532,-0.13736 -0.30866,-0.27635 -0.46289,-0.41406 -0.55909,-0.49918 -1.1113,-1.00011 -1.65625,-1.50391 -0.12863,-0.11892 -0.25693,-0.23825 -0.38477,-0.35742 -0.5419,-0.50515 -1.07581,-1.01176 -1.60351,-1.52148 -0.13774,-0.13307 -0.27729,-0.26508 -0.41406,-0.39844 -0.55844,-0.54454 -1.10621,-1.0929 -1.64844,-1.64258 -0.0807,-0.0818 -0.16379,-0.16221 -0.24414,-0.24414 -0.56552,-0.57667 -1.1203,-1.15798 -1.66797,-1.74024 -0.069,-0.0733 -0.14031,-0.14534 -0.20899,-0.21875 -0.58175,-0.62181 -1.15352,-1.24689 -1.71484,-1.875 -0.0239,-0.0267 -0.0484,-0.0533 -0.0723,-0.0801 -2.97621,-3.33685 -5.66402,-6.7612 -8.05665,-10.26954 z m 338.86524,78.92774 c 0.2077,0.0312 0.4209,0.0587 0.62891,0.0898 l -0.0273,0.0332 c -0.2023,-0.0401 -0.39946,-0.0827 -0.60156,-0.12305 z"
       id="path5839"
       inkscape:connector-curvature="0" />
  </g>
</svg>
